<?xml version="1.0" standalone="no"?>
<!DOCTYPE svg PUBLIC "-//W3C//DTD SVG 1.1//EN" "http://www.w3.org/Graphics/SVG/1.1/DTD/svg11.dtd">

<svg width="100%" height="100%" version="1.1" xmlns="http://www.w3.org/2000/svg">
	<rect width="100%" height="100%" style="fill:rgb(0,24,0);stroke:#ffffff;stroke-width:1"/>

	<line x1="49%" y1="2.5%" x2="51%" y2="2.5%" style="stroke:#404040;stroke-width:1" />
	<line x1="49%" y1="5%" x2="51%" y2="5%" style="stroke:#404040;stroke-width:1" />
	<line x1="49%" y1="7.5%" x2="51%" y2="7.5%" style="stroke:#404040;stroke-width:1" />
	<line x1="49%" y1="10%" x2="51%" y2="10%" style="stroke:#404040;stroke-width:1" />
	<line x1="0" y1="12.5%" x2="100%" y2="12.5%" style="stroke:#404040;stroke-width:1" />
	<line x1="49%" y1="15%" x2="51%" y2="15%" style="stroke:#404040;stroke-width:1" />
	<line x1="49%" y1="17.5%" x2="51%" y2="17.5%" style="stroke:#404040;stroke-width:1" />
	<line x1="49%" y1="20%" x2="51%" y2="20%" style="stroke:#404040;stroke-width:1" />
	<line x1="49%" y1="22.5%" x2="51%" y2="22.5%" style="stroke:#404040;stroke-width:1" />
	<line x1="0" y1="25%" x2="100%" y2="25%" style="stroke:#404040;stroke-width:1" />
	<line x1="49%" y1="27.5%" x2="51%" y2="27.5%" style="stroke:#404040;stroke-width:1" />
	<line x1="49%" y1="30%" x2="51%" y2="30%" style="stroke:#404040;stroke-width:1" />
	<line x1="49%" y1="32.5%" x2="51%" y2="32.5%" style="stroke:#404040;stroke-width:1" />
	<line x1="49%" y1="35%" x2="51%" y2="35%" style="stroke:#404040;stroke-width:1" />
	<line x1="0" y1="37.5%" x2="100%" y2="37.5%" style="stroke:#404040;stroke-width:1" />
	<line x1="49%" y1="40%" x2="51%" y2="40%" style="stroke:#404040;stroke-width:1" />
	<line x1="49%" y1="42.5%" x2="51%" y2="42.5%" style="stroke:#404040;stroke-width:1" />
	<line x1="49%" y1="45%" x2="51%" y2="45%" style="stroke:#404040;stroke-width:1" />
	<line x1="49%" y1="47.5%" x2="51%" y2="47.5%" style="stroke:#404040;stroke-width:1" />
	<line x1="0" y1="50%" x2="100%" y2="50%" style="stroke:#404040;stroke-width:1" />
	<line x1="49%" y1="52.5%" x2="51%" y2="52.5%" style="stroke:#404040;stroke-width:1" />
	<line x1="49%" y1="55%" x2="51%" y2="55%" style="stroke:#404040;stroke-width:1" />
	<line x1="49%" y1="57.5%" x2="51%" y2="57.5%" style="stroke:#404040;stroke-width:1" />
	<line x1="49%" y1="60%" x2="51%" y2="60%" style="stroke:#404040;stroke-width:1" />
	<line x1="0" y1="62.5%" x2="100%" y2="62.5%" style="stroke:#404040;stroke-width:1" />
	<line x1="49%" y1="65%" x2="51%" y2="65%" style="stroke:#404040;stroke-width:1" />
	<line x1="49%" y1="67.5%" x2="51%" y2="67.5%" style="stroke:#404040;stroke-width:1" />
	<line x1="49%" y1="70%" x2="51%" y2="70%" style="stroke:#404040;stroke-width:1" />
	<line x1="49%" y1="72.5%" x2="51%" y2="72.5%" style="stroke:#404040;stroke-width:1" />
	<line x1="0" y1="75%" x2="100%" y2="75%" style="stroke:#404040;stroke-width:1" />
	<line x1="49%" y1="77.5%" x2="51%" y2="77.5%" style="stroke:#404040;stroke-width:1" />
	<line x1="49%" y1="80%" x2="51%" y2="80%" style="stroke:#404040;stroke-width:1" />
	<line x1="49%" y1="82.5%" x2="51%" y2="82.5%" style="stroke:#404040;stroke-width:1" />
	<line x1="49%" y1="85%" x2="51%" y2="85%" style="stroke:#404040;stroke-width:1" />
	<line x1="0" y1="87.5%" x2="100%" y2="87.5%" style="stroke:#404040;stroke-width:1" />
	<line x1="49%" y1="90%" x2="51%" y2="90%" style="stroke:#404040;stroke-width:1" />
	<line x1="49%" y1="92.5%" x2="51%" y2="92.5%" style="stroke:#404040;stroke-width:1" />
	<line x1="49%" y1="95%" x2="51%" y2="95%" style="stroke:#404040;stroke-width:1" />
	<line x1="49%" y1="97.5%" x2="51%" y2="97.5%" style="stroke:#404040;stroke-width:1" />	
	
	<line x1="2.5%" y1="49%" x2="2.5%" y2="51%" style="stroke:#404040;stroke-width:1" />
	<line x1="5%" y1="49%" x2="5%" y2="51%" style="stroke:#404040;stroke-width:1" />
	<line x1="7.5%" y1="49%" x2="7.5%" y2="51%" style="stroke:#404040;stroke-width:1" />
	<line x1="10%" y1="49%" x2="10%" y2="51%" style="stroke:#404040;stroke-width:1" />
	<line x1="12.5%" y1="0" x2="12.5%" y2="100%" style="stroke:#404040;stroke-width:1" />
	<line x1="15%" y1="49%" x2="15%" y2="51%" style="stroke:#404040;stroke-width:1" />
	<line x1="17.5%" y1="49%" x2="17.5%" y2="51%" style="stroke:#404040;stroke-width:1" />
	<line x1="20%" y1="49%" x2="20%" y2="51%" style="stroke:#404040;stroke-width:1" />
	<line x1="22.5%" y1="49%" x2="22.5%" y2="51%" style="stroke:#404040;stroke-width:1" />
	<line x1="25%" y1="0" x2="25%" y2="100%" style="stroke:#404040;stroke-width:1" />
	<line x1="27.5%" y1="49%" x2="27.5%" y2="51%" style="stroke:#404040;stroke-width:1" />
	<line x1="30%" y1="49%" x2="30%" y2="51%" style="stroke:#404040;stroke-width:1" />
	<line x1="32.5%" y1="49%" x2="32.5%" y2="51%" style="stroke:#404040;stroke-width:1" />
	<line x1="35%" y1="49%" x2="35%" y2="51%" style="stroke:#404040;stroke-width:1" />
	<line x1="37.5%" y1="0" x2="37.5%" y2="100%" style="stroke:#404040;stroke-width:1" />
	<line x1="40%" y1="49%" x2="40%" y2="51%" style="stroke:#404040;stroke-width:1" />
	<line x1="42.5%" y1="49%" x2="42.5%" y2="51%" style="stroke:#404040;stroke-width:1" />
	<line x1="45%" y1="49%" x2="45%" y2="51%" style="stroke:#404040;stroke-width:1" />
	<line x1="47.5%" y1="49%" x2="47.5%" y2="51%" style="stroke:#404040;stroke-width:1" />
	<line x1="50%" y1="0" x2="50%" y2="100%" style="stroke:#404040;stroke-width:1" />
	<line x1="52.5%" y1="49%" x2="52.5%" y2="51%" style="stroke:#404040;stroke-width:1" />
	<line x1="55%" y1="49%" x2="55%" y2="51%" style="stroke:#404040;stroke-width:1" />
	<line x1="57.5%" y1="49%" x2="57.5%" y2="51%" style="stroke:#404040;stroke-width:1" />
	<line x1="60%" y1="49%" x2="60%" y2="51%" style="stroke:#404040;stroke-width:1" />
	<line x1="62.5%" y1="0" x2="62.5%" y2="100%" style="stroke:#404040;stroke-width:1" />
	<line x1="65%" y1="49%" x2="65%" y2="51%" style="stroke:#404040;stroke-width:1" />
	<line x1="67.5%" y1="49%" x2="67.5%" y2="51%" style="stroke:#404040;stroke-width:1" />
	<line x1="70%" y1="49%" x2="70%" y2="51%" style="stroke:#404040;stroke-width:1" />
	<line x1="72.5%" y1="49%" x2="72.5%" y2="51%" style="stroke:#404040;stroke-width:1" />
	<line x1="75%" y1="0" x2="75%" y2="100%" style="stroke:#404040;stroke-width:1" />
	<line x1="77.5%" y1="49%" x2="77.5%" y2="51%" style="stroke:#404040;stroke-width:1" />
	<line x1="80%" y1="49%" x2="80%" y2="51%" style="stroke:#404040;stroke-width:1" />
	<line x1="82.5%" y1="49%" x2="82.5%" y2="51%" style="stroke:#404040;stroke-width:1" />
	<line x1="85%" y1="49%" x2="85%" y2="51%" style="stroke:#404040;stroke-width:1" />
	<line x1="87.5%" y1="0" x2="87.5%" y2="100%" style="stroke:#404040;stroke-width:1" />
	<line x1="90%" y1="49%" x2="90%" y2="51%" style="stroke:#404040;stroke-width:1" />
	<line x1="92.5%" y1="49%" x2="92.5%" y2="51%" style="stroke:#404040;stroke-width:1" />
	<line x1="95%" y1="49%" x2="95%" y2="51%" style="stroke:#404040;stroke-width:1" />
	<line x1="97.5%" y1="49%" x2="97.5%" y2="51%" style="stroke:#404040;stroke-width:1" />
		
	<polyline id="value0" points="" style="fill:none;stroke:#ffffff;stroke-width:1" />
	<polyline id="value1" points="" style="fill:none;stroke:#00ff00;stroke-width:1" />
	<polyline id="value2" points="" style="fill:none;stroke:#0000ff;stroke-width:1" />
	<polyline id="value3" points="" style="fill:none;stroke:#ff0000;stroke-width:1" />
</svg>
